<mxfile host="app.diagrams.net" modified="2023-06-08T04:16:17.923Z" agent="5.0 (Macintosh; Intel Mac OS X 10_15_7) AppleWebKit/537.36 (KHTML, like Gecko) Chrome/114.0.0.0 Safari/537.36" etag="Ouqpjl5SueKhG0XyptO1" version="20.5.3" type="github">
  <diagram id="acRBwgXRRX5TMtxG9aIq" name="第 1 页">
    <mxGraphModel dx="881" dy="548" grid="1" gridSize="10" guides="1" tooltips="1" connect="1" arrows="1" fold="1" page="1" pageScale="1" pageWidth="583" pageHeight="827" math="0" shadow="0">
      <root>
        <mxCell id="0" />
        <mxCell id="1" parent="0" />
        <mxCell id="j6j1oR0tXh09qe36JYkn-3" style="edgeStyle=orthogonalEdgeStyle;rounded=0;orthogonalLoop=1;jettySize=auto;html=1;entryX=0;entryY=0.5;entryDx=0;entryDy=0;strokeColor=none;" edge="1" parent="1" source="j6j1oR0tXh09qe36JYkn-1" target="j6j1oR0tXh09qe36JYkn-2">
          <mxGeometry relative="1" as="geometry" />
        </mxCell>
        <mxCell id="j6j1oR0tXh09qe36JYkn-4" style="edgeStyle=orthogonalEdgeStyle;rounded=1;orthogonalLoop=1;jettySize=auto;html=1;entryX=0;entryY=0.5;entryDx=0;entryDy=0;" edge="1" parent="1" source="j6j1oR0tXh09qe36JYkn-1" target="j6j1oR0tXh09qe36JYkn-2">
          <mxGeometry relative="1" as="geometry" />
        </mxCell>
        <mxCell id="j6j1oR0tXh09qe36JYkn-5" value="start" style="edgeLabel;html=1;align=center;verticalAlign=middle;resizable=0;points=[];" vertex="1" connectable="0" parent="j6j1oR0tXh09qe36JYkn-4">
          <mxGeometry x="-0.0818" y="-1" relative="1" as="geometry">
            <mxPoint as="offset" />
          </mxGeometry>
        </mxCell>
        <mxCell id="j6j1oR0tXh09qe36JYkn-1" value="NEW" style="rounded=0;whiteSpace=wrap;html=1;fillColor=#e3c800;fontColor=#000000;strokeColor=#B09500;" vertex="1" parent="1">
          <mxGeometry x="110" y="160" width="120" height="60" as="geometry" />
        </mxCell>
        <mxCell id="j6j1oR0tXh09qe36JYkn-2" value="RUNNABLE" style="whiteSpace=wrap;html=1;rounded=0;fillColor=#f0a30a;fontColor=#000000;strokeColor=#BD7000;" vertex="1" parent="1">
          <mxGeometry x="330" y="160" width="120" height="60" as="geometry" />
        </mxCell>
        <mxCell id="j6j1oR0tXh09qe36JYkn-6" value="TIMED_WAITING" style="whiteSpace=wrap;html=1;rounded=0;fillColor=#647687;fontColor=#ffffff;strokeColor=#314354;" vertex="1" parent="1">
          <mxGeometry x="510" y="290" width="120" height="60" as="geometry" />
        </mxCell>
        <mxCell id="j6j1oR0tXh09qe36JYkn-8" value="WAITING" style="whiteSpace=wrap;html=1;rounded=0;fillColor=#6d8764;fontColor=#ffffff;strokeColor=#3A5431;" vertex="1" parent="1">
          <mxGeometry x="510" y="30" width="120" height="60" as="geometry" />
        </mxCell>
        <mxCell id="j6j1oR0tXh09qe36JYkn-12" value="" style="endArrow=classic;html=1;rounded=1;" edge="1" parent="1">
          <mxGeometry width="50" height="50" relative="1" as="geometry">
            <mxPoint x="370" y="140" as="sourcePoint" />
            <mxPoint x="485" y="50" as="targetPoint" />
          </mxGeometry>
        </mxCell>
        <mxCell id="j6j1oR0tXh09qe36JYkn-13" value="Thread::join&lt;br&gt;Object::wait" style="text;html=1;strokeColor=none;fillColor=none;align=center;verticalAlign=middle;whiteSpace=wrap;rounded=0;" vertex="1" parent="1">
          <mxGeometry x="384" y="50" width="60" height="30" as="geometry" />
        </mxCell>
        <mxCell id="j6j1oR0tXh09qe36JYkn-14" value="" style="endArrow=classic;html=1;rounded=1;entryX=0.5;entryY=0;entryDx=0;entryDy=0;" edge="1" parent="1" target="j6j1oR0tXh09qe36JYkn-2">
          <mxGeometry width="50" height="50" relative="1" as="geometry">
            <mxPoint x="490" y="80" as="sourcePoint" />
            <mxPoint x="420" y="140" as="targetPoint" />
          </mxGeometry>
        </mxCell>
        <mxCell id="j6j1oR0tXh09qe36JYkn-15" value="Thread::notify&lt;br&gt;Thread::notifyAll" style="text;html=1;strokeColor=none;fillColor=none;align=center;verticalAlign=middle;whiteSpace=wrap;rounded=0;" vertex="1" parent="1">
          <mxGeometry x="450" y="110" width="60" height="30" as="geometry" />
        </mxCell>
        <mxCell id="j6j1oR0tXh09qe36JYkn-16" value="" style="endArrow=classic;html=1;rounded=1;" edge="1" parent="1">
          <mxGeometry width="50" height="50" relative="1" as="geometry">
            <mxPoint x="510" y="315" as="sourcePoint" />
            <mxPoint x="380" y="230" as="targetPoint" />
          </mxGeometry>
        </mxCell>
        <mxCell id="j6j1oR0tXh09qe36JYkn-17" value="Thread::join(timeout)&lt;br&gt;Object::wait(timeout)&lt;br&gt;Thread::sleep&lt;br&gt;LockSupport::parkNanos&lt;br&gt;LockSupport::parkUntil" style="text;html=1;strokeColor=none;fillColor=none;align=center;verticalAlign=middle;whiteSpace=wrap;rounded=0;" vertex="1" parent="1">
          <mxGeometry x="330" y="290" width="60" height="30" as="geometry" />
        </mxCell>
        <mxCell id="j6j1oR0tXh09qe36JYkn-18" value="" style="endArrow=classic;html=1;rounded=1;entryX=0.5;entryY=0;entryDx=0;entryDy=0;" edge="1" parent="1">
          <mxGeometry width="50" height="50" relative="1" as="geometry">
            <mxPoint x="340" y="240" as="sourcePoint" />
            <mxPoint x="474" y="330" as="targetPoint" />
          </mxGeometry>
        </mxCell>
        <mxCell id="j6j1oR0tXh09qe36JYkn-19" value="超时时间到" style="text;html=1;strokeColor=none;fillColor=none;align=center;verticalAlign=middle;whiteSpace=wrap;rounded=0;" vertex="1" parent="1">
          <mxGeometry x="420" y="250" width="90" height="30" as="geometry" />
        </mxCell>
        <mxCell id="j6j1oR0tXh09qe36JYkn-21" value="" style="endArrow=classic;startArrow=none;html=1;rounded=1;" edge="1" parent="1" source="j6j1oR0tXh09qe36JYkn-23">
          <mxGeometry width="50" height="50" relative="1" as="geometry">
            <mxPoint x="480" y="180" as="sourcePoint" />
            <mxPoint x="680" y="140" as="targetPoint" />
          </mxGeometry>
        </mxCell>
        <mxCell id="j6j1oR0tXh09qe36JYkn-22" value="BLOCKED" style="rounded=0;whiteSpace=wrap;html=1;fillColor=#a0522d;fontColor=#ffffff;strokeColor=#6D1F00;" vertex="1" parent="1">
          <mxGeometry x="720" y="95" width="120" height="60" as="geometry" />
        </mxCell>
        <mxCell id="j6j1oR0tXh09qe36JYkn-23" value="synchronized" style="text;html=1;strokeColor=none;fillColor=none;align=center;verticalAlign=middle;whiteSpace=wrap;rounded=0;" vertex="1" parent="1">
          <mxGeometry x="540" y="140" width="90" height="30" as="geometry" />
        </mxCell>
        <mxCell id="j6j1oR0tXh09qe36JYkn-24" value="" style="endArrow=none;startArrow=classic;html=1;rounded=1;" edge="1" parent="1" target="j6j1oR0tXh09qe36JYkn-23">
          <mxGeometry width="50" height="50" relative="1" as="geometry">
            <mxPoint x="480" y="180" as="sourcePoint" />
            <mxPoint x="680" y="140" as="targetPoint" />
          </mxGeometry>
        </mxCell>
        <mxCell id="j6j1oR0tXh09qe36JYkn-25" value="run()结束" style="endArrow=classic;startArrow=classic;html=1;rounded=1;" edge="1" parent="1">
          <mxGeometry width="50" height="50" relative="1" as="geometry">
            <mxPoint x="485" y="200" as="sourcePoint" />
            <mxPoint x="700" y="250" as="targetPoint" />
          </mxGeometry>
        </mxCell>
        <mxCell id="j6j1oR0tXh09qe36JYkn-26" value="TERMINATED" style="rounded=0;whiteSpace=wrap;html=1;fillColor=#e51400;fontColor=#ffffff;strokeColor=#B20000;" vertex="1" parent="1">
          <mxGeometry x="720" y="235" width="120" height="60" as="geometry" />
        </mxCell>
        <mxCell id="j6j1oR0tXh09qe36JYkn-27" value="&lt;b&gt;&lt;font style=&quot;font-size: 18px;&quot;&gt;线程状态转换图&lt;/font&gt;&lt;/b&gt;" style="text;html=1;strokeColor=none;fillColor=none;align=center;verticalAlign=middle;whiteSpace=wrap;rounded=0;" vertex="1" parent="1">
          <mxGeometry x="400" y="399" width="180" height="30" as="geometry" />
        </mxCell>
      </root>
    </mxGraphModel>
  </diagram>
</mxfile>
